<?xml version="1.0" standalone="no"?>
<!DOCTYPE svg PUBLIC "-//W3C//DTD SVG 20010904//EN"
 "http://www.w3.org/TR/2001/REC-SVG-20010904/DTD/svg10.dtd">
<svg version="1.0" xmlns="http://www.w3.org/2000/svg"
 width="79.000000pt" height="79.000000pt" viewBox="0 0 79.000000 79.000000"
 preserveAspectRatio="xMidYMid meet">
<metadata>
Created by potrace 1.14, written by Peter Selinger 2001-2017
</metadata>
<g transform="translate(0.000000,79.000000) scale(0.100000,-0.100000)"
fill="#000000" stroke="none">
<path d="M218 678 c-18 -16 -97 -120 -127 -168 -23 -39 -27 -94 -8 -126 17
-30 277 -265 305 -275 39 -15 199 -11 231 6 33 17 41 33 41 84 0 32 -9 45 -75
111 -70 70 -77 80 -100 156 -14 45 -32 87 -40 94 -10 9 -32 11 -65 7 l-50 -6
0 42 c0 48 -6 59 -37 76 -28 14 -55 14 -75 -1z m62 -107 c7 -63 20 -74 82 -66
l46 5 26 -78 c23 -68 34 -86 92 -142 78 -78 90 -96 73 -116 -6 -8 -18 -14 -27
-14 -8 0 -83 65 -166 143 -161 154 -171 161 -228 171 l-38 7 57 75 c31 41 61
73 67 71 6 -2 13 -27 16 -56z m60 -286 c120 -118 126 -125 98 -125 -31 0 -65
27 -238 188 l-65 61 38 1 c36 0 47 -9 167 -125z"/>
</g>
</svg>
